<svg width="21" height="20" viewBox="0 0 21 20" fill="none" xmlns="http://www.w3.org/2000/svg">
<path d="M13.9583 9.16667V14.1667M10.625 5.83333V14.1667M7.29167 10.8333V14.1667M10.625 17.5C7.50022 17.5 5.93783 17.5 4.84256 16.7042C4.48883 16.4472 4.17776 16.1362 3.92076 15.7824C3.125 14.6872 3.125 13.1248 3.125 10C3.125 6.87522 3.125 5.31283 3.92076 4.21756C4.17776 3.86383 4.48883 3.55276 4.84256 3.29576C5.93783 2.5 7.50022 2.5 10.625 2.5C13.7498 2.5 15.3122 2.5 16.4074 3.29576C16.7612 3.55276 17.0722 3.86383 17.3292 4.21756C18.125 5.31283 18.125 6.87522 18.125 10C18.125 13.1248 18.125 14.6872 17.3292 15.7824C17.0722 16.1362 16.7612 16.4472 16.4074 16.7042C15.3122 17.5 13.7498 17.5 10.625 17.5Z" stroke="black" stroke-opacity="0.4" stroke-width="1.5" stroke-linecap="round"/>
</svg>
