<svg width="21" height="20" viewBox="0 0 21 20" fill="none" xmlns="http://www.w3.org/2000/svg">
<path d="M4.59256 17.5376L5.0334 16.9308L4.59256 17.5376ZM3.67076 16.6158L4.27753 16.1749L3.67076 16.6158ZM17.0792 16.6158L16.4725 16.1749L17.0792 16.6158ZM16.1574 17.5376L16.5983 18.1443L16.1574 17.5376ZM16.1574 4.12909L16.5983 3.52232L16.1574 4.12909ZM17.0792 5.05088L16.4725 5.49172L17.0792 5.05088ZM4.59256 4.12909L5.0334 4.73585L4.59256 4.12909ZM3.67076 5.05088L4.27753 5.49172L3.67076 5.05088ZM16.3899 13.3846L16.2725 12.6439L16.3899 13.3846ZM12.9263 16.8482L12.1855 16.7309L12.9263 16.8482ZM7.875 10.9167C7.46079 10.9167 7.125 11.2524 7.125 11.6667C7.125 12.0809 7.46079 12.4167 7.875 12.4167V10.9167ZM12.875 12.4167C13.2892 12.4167 13.625 12.0809 13.625 11.6667C13.625 11.2524 13.2892 10.9167 12.875 10.9167V12.4167ZM12.125 4.16666C12.125 4.58087 12.4608 4.91666 12.875 4.91666C13.2892 4.91666 13.625 4.58087 13.625 4.16666H12.125ZM13.625 1.66666C13.625 1.25244 13.2892 0.916656 12.875 0.916656C12.4608 0.916656 12.125 1.25244 12.125 1.66666H13.625ZM7.125 4.16666C7.125 4.58087 7.46079 4.91666 7.875 4.91666C8.28921 4.91666 8.625 4.58087 8.625 4.16666H7.125ZM8.625 1.66666C8.625 1.25244 8.28921 0.916656 7.875 0.916656C7.46079 0.916656 7.125 1.25244 7.125 1.66666H8.625ZM17.8509 13.3333L18.6005 13.359L17.8509 13.3333ZM2.89911 8.33332L2.14955 8.30764L2.89911 8.33332ZM17.8509 8.33332L18.6005 8.30764L17.8509 8.33332ZM10.375 18.3333V17.5833C8.79591 17.5833 7.67183 17.5823 6.8035 17.4882C5.94921 17.3957 5.43188 17.2203 5.0334 16.9308L4.59256 17.5376L4.15172 18.1443C4.84852 18.6506 5.66002 18.8731 6.64193 18.9795C7.60981 19.0844 8.82932 19.0833 10.375 19.0833V18.3333ZM2.875 10.8333H2.125C2.125 12.379 2.12397 13.5985 2.22883 14.5664C2.33522 15.5483 2.55775 16.3598 3.064 17.0566L3.67076 16.6158L4.27753 16.1749C3.98801 15.7764 3.81266 15.2591 3.72011 14.4048C3.62603 13.5365 3.625 12.4124 3.625 10.8333H2.875ZM4.59256 17.5376L5.0334 16.9308C4.74334 16.7201 4.48826 16.465 4.27753 16.1749L3.67076 16.6158L3.064 17.0566C3.36726 17.474 3.73432 17.8411 4.15172 18.1443L4.59256 17.5376ZM17.0792 16.6158L16.4725 16.1749C16.2617 16.465 16.0067 16.7201 15.7166 16.9308L16.1574 17.5376L16.5983 18.1443C17.0157 17.8411 17.3827 17.474 17.686 17.0566L17.0792 16.6158ZM16.1574 4.12909L15.7166 4.73585C16.0067 4.94659 16.2617 5.20167 16.4725 5.49172L17.0792 5.05088L17.686 4.61005C17.3827 4.19265 17.0157 3.82558 16.5983 3.52232L16.1574 4.12909ZM4.59256 4.12909L4.15172 3.52232C3.73432 3.82558 3.36726 4.19265 3.064 4.61005L3.67076 5.05088L4.27753 5.49172C4.48826 5.20167 4.74334 4.94659 5.0334 4.73585L4.59256 4.12909ZM16.3899 13.3846L16.2725 12.6439C14.1687 12.9771 12.5187 14.627 12.1855 16.7309L12.9263 16.8482L13.6671 16.9655C13.8986 15.5035 15.0452 14.3569 16.5072 14.1254L16.3899 13.3846ZM7.875 11.6667V12.4167H12.875V11.6667V10.9167H7.875V11.6667ZM17.8509 13.3333L17.8509 12.5833C17.1202 12.5833 16.6658 12.5816 16.2725 12.6439L16.3899 13.3846L16.5072 14.1254C16.7549 14.0861 17.0653 14.0833 17.8509 14.0833L17.8509 13.3333ZM17.875 10.8333H17.125C17.125 11.8116 17.1249 12.6196 17.1013 13.3076L17.8509 13.3333L18.6005 13.359C18.6251 12.6398 18.625 11.8033 18.625 10.8333H17.875ZM17.8509 13.3333L17.1013 13.3076C17.0484 14.8519 16.8755 15.6201 16.4725 16.1749L17.0792 16.6158L17.686 17.0566C18.3783 16.1037 18.5469 14.9218 18.6005 13.359L17.8509 13.3333ZM12.875 18.3092L13.625 18.3092C13.625 17.5236 13.6278 17.2133 13.6671 16.9655L12.9263 16.8482L12.1855 16.7309C12.1232 17.1241 12.125 17.5786 12.125 18.3092L12.875 18.3092ZM10.375 18.3333V19.0833C11.345 19.0833 12.1815 19.0834 12.9007 19.0588L12.875 18.3092L12.8493 17.5597C12.1613 17.5832 11.3533 17.5833 10.375 17.5833V18.3333ZM12.875 18.3092L12.9007 19.0588C14.4634 19.0052 15.6454 18.8366 16.5983 18.1443L16.1574 17.5376L15.7166 16.9308C15.1618 17.3339 14.3935 17.5067 12.8493 17.5597L12.875 18.3092ZM2.875 10.8333H3.625C3.625 9.85507 3.62509 9.04705 3.64867 8.359L2.89911 8.33332L2.14955 8.30764C2.12491 9.02684 2.125 9.86337 2.125 10.8333H2.875ZM2.89911 8.33332L3.64867 8.359C3.70157 6.81478 3.87445 6.0465 4.27753 5.49172L3.67076 5.05088L3.064 4.61005C2.37168 5.56294 2.20309 6.74489 2.14955 8.30764L2.89911 8.33332ZM2.89911 8.33332V9.08332H17.8509V8.33332V7.58332H2.89911V8.33332ZM17.875 10.8333H18.625C18.625 9.86337 18.6251 9.02684 18.6005 8.30764L17.8509 8.33332L17.1013 8.359C17.1249 9.04705 17.125 9.85507 17.125 10.8333H17.875ZM17.8509 8.33332L18.6005 8.30764C18.5469 6.7449 18.3783 5.56294 17.686 4.61005L17.0792 5.05088L16.4725 5.49172C16.8755 6.0465 17.0484 6.81477 17.1013 8.359L17.8509 8.33332ZM12.875 4.16666H13.625V3.35743H12.875H12.125V4.16666H12.875ZM12.875 3.35743H13.625V1.66666H12.875H12.125V3.35743H12.875ZM10.375 3.33332V4.08332C11.3533 4.08332 12.1613 4.08342 12.8493 4.10699L12.875 3.35743L12.9007 2.60787C12.1815 2.58323 11.345 2.58332 10.375 2.58332V3.33332ZM12.875 3.35743L12.8493 4.10699C14.3935 4.1599 15.1618 4.33278 15.7166 4.73585L16.1574 4.12909L16.5983 3.52232C15.6454 2.83001 14.4634 2.66141 12.9007 2.60787L12.875 3.35743ZM7.875 4.16666H8.625V3.35743H7.875H7.125V4.16666H7.875ZM7.875 3.35743H8.625V1.66666H7.875H7.125V3.35743H7.875ZM10.375 3.33332V2.58332C9.40505 2.58332 8.56852 2.58323 7.84932 2.60787L7.875 3.35743L7.90068 4.10699C8.58872 4.08342 9.39674 4.08332 10.375 4.08332V3.33332ZM7.875 3.35743L7.84932 2.60787C6.28657 2.66141 5.10462 2.83001 4.15172 3.52232L4.59256 4.12909L5.0334 4.73585C5.58818 4.33278 6.35645 4.1599 7.90068 4.10699L7.875 3.35743Z" fill="black" fill-opacity="0.4"/>
</svg>
