<svg width="20" height="20" viewBox="0 0 20 20" fill="none" xmlns="http://www.w3.org/2000/svg">
<path d="M6.54192 18.672C7.37793 18.7732 8.4388 18.7732 9.87525 18.7732C11.3117 18.7732 12.3726 18.7732 13.2086 18.672M6.54192 18.672C5.77919 18.5796 5.20363 18.4029 4.70078 18.065C4.61622 18.0082 4.53378 17.9483 4.45362 17.8854C3.45433 17.1018 3.0299 15.7956 2.18104 13.1831C1.33218 10.5705 0.907749 9.26427 1.25562 8.04298C1.28353 7.94501 1.31502 7.84809 1.35003 7.75243C1.78645 6.55991 2.89762 5.7526 5.11997 4.13797C7.34231 2.52334 8.45349 1.71603 9.7225 1.66947C9.8243 1.66574 9.9262 1.66574 10.028 1.66947C11.297 1.71603 12.4082 2.52334 14.6305 4.13797C16.8529 5.7526 17.9641 6.55991 18.4005 7.75243C18.4355 7.84809 18.467 7.94501 18.4949 8.04298C18.8427 9.26427 18.4183 10.5705 17.5695 13.1831C16.7206 15.7956 16.2962 17.1018 15.2969 17.8854C15.2167 17.9483 15.1343 18.0082 15.0497 18.065C14.5469 18.4029 13.9713 18.5796 13.2086 18.672M6.54192 18.672V18.5997V15.6831C6.54192 13.8421 8.0343 12.3497 9.87525 12.3497C11.7162 12.3497 13.2086 13.8421 13.2086 15.6831V18.5997V18.672" stroke="black" stroke-opacity="0.4" stroke-width="1.5"/>
</svg>
