<svg width="280" height="121" viewBox="0 0 280 121" fill="none" xmlns="http://www.w3.org/2000/svg">
<path d="M24.5 14.9998C18.8494 14.9998 7 1.4998 0 1.4998V120.5H279V58.4998C273 53.9998 260.034 52.4998 252.5 52.4998C243.082 52.4998 234.975 48.9998 228.5 48.9998C222.025 48.9998 206.886 45.9998 201 45.9998C195.114 45.9998 182.386 43.1452 176.5 43.1452C170.614 43.1452 156.209 27.9998 151.5 27.9998C146.791 27.9998 141.861 35.26 125 36.9998C119.731 37.5435 104.5 34.4998 99 32.9998C94.4571 31.7608 80 27.9998 75.5 25.0622C71.5346 22.4736 53.7975 12.5021 48.5 11.9998C43.2025 11.4975 31.5633 14.9998 24.5 14.9998Z" fill="url(#paint0_linear_19279_6142)"/>
<path d="M0.5 1.5C5.5 1.5 18.8494 15 24.5 15C31.5633 15 43.7025 11.4965 49 12C54.2975 12.5035 70.4407 23.8153 75 25.0957C80 26.5 98.2911 34 103 34C107.709 34 117.5 37.5 124.5 37.5C134.5 37.5 146.791 28 151.5 28C156.209 28 170.614 43.2234 176.5 43.2234C182.386 43.2234 197.614 46 203.5 46C209.386 46 222.025 49 228.5 49C234.975 49 244.582 53 254 53C261.534 53 272.5 54.5 279 58.5" stroke="#F39111" stroke-width="2"/>
<defs>
<linearGradient id="paint0_linear_19279_6142" x1="168.342" y1="18.5321" x2="170.523" y2="120.51" gradientUnits="userSpaceOnUse">
<stop stop-color="#F39111"/>
<stop offset="1" stop-color="white" stop-opacity="0"/>
</linearGradient>
</defs>
</svg>
