<svg width="21" height="20" viewBox="0 0 21 20" fill="none" xmlns="http://www.w3.org/2000/svg">
<path d="M13.4587 4.99999H12.7087C12.7087 6.42673 11.5521 7.58332 10.1253 7.58332V8.33332V9.08332C12.3805 9.08332 14.2087 7.25515 14.2087 4.99999H13.4587ZM10.1253 8.33332V7.58332C8.69859 7.58332 7.54199 6.42673 7.54199 4.99999H6.79199H6.04199C6.04199 7.25515 7.87016 9.08332 10.1253 9.08332V8.33332ZM6.79199 4.99999H7.54199C7.54199 3.57325 8.69859 2.41666 10.1253 2.41666V1.66666V0.916656C7.87016 0.916656 6.04199 2.74483 6.04199 4.99999H6.79199ZM10.1253 1.66666V2.41666C11.5521 2.41666 12.7087 3.57325 12.7087 4.99999H13.4587H14.2087C14.2087 2.74483 12.3805 0.916656 10.1253 0.916656V1.66666ZM7.62533 10.8333V11.5833H12.6253V10.8333V10.0833H7.62533V10.8333ZM12.6253 17.5V16.75H7.62533V17.5V18.25H12.6253V17.5ZM7.62533 17.5V16.75C6.19859 16.75 5.04199 15.5934 5.04199 14.1667H4.29199H3.54199C3.54199 16.4218 5.37016 18.25 7.62533 18.25V17.5ZM15.9587 14.1667H15.2087C15.2087 15.5934 14.0521 16.75 12.6253 16.75V17.5V18.25C14.8805 18.25 16.7087 16.4218 16.7087 14.1667H15.9587ZM12.6253 10.8333V11.5833C14.0521 11.5833 15.2087 12.7399 15.2087 14.1667H15.9587H16.7087C16.7087 11.9115 14.8805 10.0833 12.6253 10.0833V10.8333ZM7.62533 10.8333V10.0833C5.37016 10.0833 3.54199 11.9115 3.54199 14.1667H4.29199H5.04199C5.04199 12.7399 6.19859 11.5833 7.62533 11.5833V10.8333Z" fill="black" fill-opacity="0.4"/>
</svg>
